<svg version="1.1" id="Layer_1" xmlns="http://www.w3.org/2000/svg" xmlns:xlink="http://www.w3.org/1999/xlink" x="0px" y="0px"
	 width="100%" viewBox="0 0 640 640" enable-background="new 0 0 640 640" xml:space="preserve">
<path fill="white" opacity="1.000000" stroke="none" 
	d="
M386.190765,85.571960 
	C383.706879,81.050888 385.703857,79.972839 389.637451,79.943329 
	C402.750610,79.844963 416.953369,89.595848 421.597076,101.902138 
	C422.100342,103.235924 422.101166,104.921883 424.318390,106.160774 
	C424.839966,96.826324 426.068848,87.921288 433.450348,80.235054 
	C438.467987,87.607155 442.869354,94.653915 445.051300,102.892395 
	C447.115662,110.686981 445.376465,117.961205 440.512177,124.085953 
	C437.295959,128.135620 438.950348,130.458572 442.192505,133.895599 
	C445.448792,124.764511 449.332550,116.647125 457.036713,111.109749 
	C466.108490,122.175240 466.234924,144.186066 456.233307,153.963074 
	C450.660248,159.410950 451.462097,163.959457 454.056091,170.300934 
	C456.009216,167.556396 457.740631,165.063126 459.534515,162.615646 
	C462.868469,158.066925 467.493927,155.100510 472.293701,152.376877 
	C474.274658,151.252777 476.666840,150.830246 476.716492,153.864624 
	C476.917816,166.171249 477.875427,178.786957 467.578735,188.335541 
	C466.117859,189.690262 464.648834,191.089462 462.987915,192.166245 
	C454.765869,197.496628 454.021454,199.156158 455.827911,210.139191 
	C463.133240,203.065872 471.269867,198.521072 481.423462,198.419357 
	C481.909821,215.995758 469.442719,231.695328 453.182129,234.387604 
	C450.293610,234.865845 448.697540,236.270599 447.857330,238.874298 
	C447.143921,241.085129 446.436920,243.298004 445.375397,246.605789 
	C454.890808,242.456131 463.947357,239.798584 473.506897,243.401215 
	C470.621521,256.825562 452.897278,270.772827 440.124786,269.900665 
	C432.215118,269.360535 430.536133,270.456848 427.215027,278.805054 
	C432.373810,278.326355 437.279968,277.235260 442.173401,278.073303 
	C447.063568,278.910767 451.990082,279.722382 456.343323,282.760559 
	C455.575989,286.751831 451.961365,287.861877 449.659393,289.973602 
	C443.878937,295.276337 437.691895,300.147064 429.812378,302.055725 
	C424.476105,303.348297 419.208954,302.532410 414.066162,300.969391 
	C407.285095,298.908478 405.776550,299.377899 400.386871,306.319061 
	C411.008484,307.969025 421.742462,308.661377 429.734863,316.630859 
	C416.762695,331.340332 395.186218,334.888397 379.351227,325.137085 
	C375.318176,322.653503 372.257965,323.444489 367.419830,328.540039 
	C370.906311,331.977112 376.021881,332.656952 379.661896,335.722260 
	C383.176178,338.681671 387.326965,340.980133 389.071472,346.479889 
	C377.207397,350.091370 365.716125,353.492950 353.673065,349.410095 
	C352.316345,350.289734 353.076172,351.020721 353.527008,351.622681 
	C354.894440,353.448364 353.973755,354.706177 352.579559,355.877014 
	C351.090912,357.127197 349.628998,357.229645 348.133087,355.835480 
	C344.010712,351.993347 338.675873,350.432098 333.766907,347.998627 
	C319.029633,340.693237 306.700714,347.178406 294.432343,354.276550 
	C292.184418,355.577148 290.570923,358.217407 287.624512,355.462738 
	C284.677917,352.707947 287.701691,351.127014 289.069061,348.499481 
	C276.008545,353.731445 264.057190,350.287994 251.780838,346.623444 
	C252.873810,341.941650 255.731567,339.399078 258.771545,337.153717 
	C261.438568,335.183838 264.492371,333.742920 267.202728,331.824585 
	C269.041229,330.523346 273.504089,331.407318 272.010620,327.157990 
	C271.050842,324.427124 264.320526,322.800110 261.911652,324.590393 
	C248.258163,334.737701 234.756134,332.477264 221.422714,324.133057 
	C217.866547,321.907562 213.405807,320.812256 210.793304,316.556549 
	C218.851242,309.115967 228.815353,307.591705 238.967758,306.641602 
	C237.552429,301.769714 233.238785,298.427734 229.677612,299.904449 
	C214.098740,306.364868 201.790009,300.298126 190.606491,289.991211 
	C188.368805,287.928925 185.386002,286.432983 183.878571,282.657593 
	C192.939209,277.970551 202.339462,276.744385 212.449829,278.949249 
	C210.553467,270.959412 208.050049,269.210907 201.348434,269.780304 
	C193.489975,270.447968 186.440964,268.095093 180.586563,262.890015 
	C174.602844,257.569916 170.303619,250.897766 165.874588,243.690689 
	C175.888199,239.953156 184.727646,242.533173 193.532761,245.720383 
	C193.941330,238.375732 191.726212,235.357742 185.583176,234.276276 
	C176.287582,232.639832 169.252731,227.987976 165.283859,219.123123 
	C162.387268,212.653351 159.609924,206.174850 158.354614,198.667343 
	C169.001175,198.052917 176.542450,203.430084 184.005508,209.135712 
	C186.583618,200.535660 185.100632,196.635757 178.409790,192.843018 
	C169.596542,187.847183 165.046478,180.021164 164.130157,170.126297 
	C163.655136,164.996918 163.806351,159.807541 163.724045,154.644485 
	C163.666122,151.011780 165.512238,150.690659 168.177139,152.300369 
	C173.607880,155.580780 178.924896,158.996597 182.463684,164.524567 
	C183.334351,165.884613 183.917358,167.571411 185.622055,168.251419 
	C189.752716,163.970856 189.894165,159.827438 185.804825,156.027344 
	C177.599304,148.402237 174.988129,139.118149 177.306259,128.315948 
	C178.547211,122.533318 179.637695,116.689751 182.509293,110.933594 
	C191.362518,116.163307 194.522110,124.836823 198.330017,133.388901 
	C201.703049,130.342758 202.459564,128.079697 199.891235,124.439774 
	C193.995651,116.084381 193.073196,106.936295 197.208740,97.411942 
	C199.728546,91.608673 202.856323,86.176125 206.856216,80.342041 
	C214.013474,86.944969 214.822144,95.615616 216.585083,103.833389 
	C218.653183,103.584023 218.490295,101.927246 219.028046,100.852585 
	C225.483704,87.951500 236.099121,81.207840 250.280624,79.984512 
	C255.776688,79.510406 256.664124,81.024040 254.173065,85.854019 
	C250.139145,93.675491 246.678452,101.873489 238.649277,106.818031 
	C233.701324,109.865074 228.229752,110.866142 222.518097,112.099274 
	C232.701401,111.549713 242.359879,112.558342 251.388123,119.144615 
	C243.655945,125.682396 235.906342,130.612961 227.260391,134.404907 
	C229.562698,137.365067 233.452499,136.038376 235.403320,138.611893 
	C226.158295,152.839676 215.069336,164.668411 199.234589,161.700394 
	C195.661713,161.030716 194.206970,164.152603 194.926712,170.169357 
	C197.234924,171.137726 198.660553,169.237244 200.206726,168.268631 
	C205.811081,164.757751 211.726608,162.340668 218.408539,162.019791 
	C222.714981,161.812988 223.663910,163.001495 221.914627,166.888809 
	C219.730698,171.742035 217.960114,176.795547 215.013824,181.289841 
	C211.176147,187.143860 206.542740,191.849030 199.507202,193.923492 
	C191.202423,196.372208 190.243591,198.759674 193.102051,207.877258 
	C195.641663,208.226379 196.309708,205.916733 197.545517,204.564896 
	C202.093079,199.590332 207.100418,195.305176 213.502792,192.857269 
	C217.072250,191.492523 218.874710,191.963821 218.384491,196.421005 
	C217.728104,202.389236 216.913895,208.287338 215.326462,214.103119 
	C213.517975,220.728729 209.543869,225.647690 204.069077,229.478027 
	C197.151062,234.318115 196.912170,235.699677 202.737106,243.664368 
	C206.518707,233.715149 210.948318,224.610107 220.375870,219.279633 
	C228.938248,233.111465 226.235397,251.127441 213.844330,264.859253 
	C215.739334,270.244171 216.748352,271.574371 220.572311,273.554047 
	C222.322861,271.195068 222.255585,268.314819 222.622330,265.633270 
	C223.551788,258.837585 226.338943,252.926193 230.555252,247.592560 
	C232.612717,244.989838 234.199371,245.053482 235.653732,248.123703 
	C239.292542,255.805511 242.955231,263.488953 244.098679,272.029968 
	C244.838181,277.553833 242.861084,282.539673 240.483322,287.367432 
	C236.882828,294.677704 238.558548,298.101929 247.822968,300.898956 
	C246.398392,289.135590 247.464600,278.028168 254.601654,268.237610 
	C266.914886,276.890747 274.205078,296.725464 270.276947,310.090332 
	C268.005035,317.819946 269.364807,319.759155 278.213989,321.147034 
	C279.749542,318.366241 277.803192,316.048187 276.950195,313.732117 
	C274.573456,307.278870 274.322876,300.714447 275.460205,294.051239 
	C276.090668,290.357483 277.566132,289.092773 281.110474,291.926575 
	C287.983978,297.422150 295.575806,302.105377 299.774017,310.317719 
	C302.271484,315.203186 303.540009,320.392365 302.764893,325.777496 
	C302.078064,330.548950 303.986053,332.308746 308.330597,333.948395 
	C317.015503,337.226135 325.227509,336.580261 333.563110,333.266052 
	C336.051697,332.276611 338.097321,331.092346 337.680206,327.894287 
	C335.985260,314.897949 341.967010,305.438721 351.666229,297.725952 
	C354.273834,295.652374 356.993805,293.719269 359.585022,291.626129 
	C362.748199,289.070953 364.186646,290.273743 365.000885,293.775146 
	C366.900635,301.944000 365.347717,309.631439 362.047180,317.123169 
	C361.514404,318.332520 361.033051,319.567474 360.600983,320.815887 
	C360.515869,321.061829 360.766937,321.424164 360.867432,321.731384 
	C368.397308,321.661194 372.359955,316.910797 370.092743,310.270599 
	C366.095306,298.562927 370.538330,288.656250 376.644897,279.228638 
	C379.132904,275.387512 381.403320,271.238586 385.717651,267.565369 
	C389.126099,272.632263 391.211853,277.770050 392.474579,283.459473 
	C393.756073,289.233429 393.038910,294.973969 392.660675,300.818573 
	C400.579010,299.192627 403.282196,294.219177 399.927490,287.649933 
	C395.746674,279.463074 394.954132,271.192139 398.536133,262.616302 
	C400.946136,256.846497 402.907318,250.860626 406.658081,244.884094 
	C416.063354,252.913757 418.335663,263.194061 418.783875,274.254547 
	C425.824951,271.532806 427.377716,265.686707 422.944672,260.841766 
	C417.394165,254.775574 414.638153,247.658417 415.339478,239.379440 
	C415.910522,232.638275 416.771637,225.943604 419.324677,219.085770 
	C429.821533,224.225479 433.944763,233.558411 437.494934,243.921188 
	C440.520538,240.904831 441.313171,237.899826 442.100189,234.883057 
	C442.535980,233.212631 441.580841,232.432800 440.272217,231.812897 
	C427.885773,225.945389 423.949554,215.022568 422.866425,202.476868 
	C422.587067,199.240768 421.207825,195.993454 422.674469,192.064987 
	C433.502625,193.866592 440.283234,201.242661 446.925049,209.500381 
	C448.757568,205.673584 448.711212,202.386093 448.818909,199.109528 
	C448.897369,196.722412 447.990997,195.490417 445.490967,195.087692 
	C428.746338,192.390457 423.464691,178.917755 418.227875,165.597824 
	C416.778687,161.911789 419.881775,161.986069 422.272095,162.087646 
	C430.248871,162.426651 436.879852,166.286819 443.466797,170.267120 
	C444.265839,170.749985 444.850708,171.768661 446.352264,171.455215 
	C445.995178,169.184387 445.719208,166.897385 445.259613,164.647934 
	C444.740326,162.106461 443.289642,161.086472 440.549561,161.648087 
	C432.592133,163.279068 425.800873,160.559677 419.660126,155.680618 
	C413.758636,150.991638 409.373291,145.012711 404.780884,139.188766 
	C407.402679,136.179779 411.101959,136.943726 414.336304,134.691971 
	C404.877075,130.889603 396.925323,125.737694 388.978546,119.238235 
	C397.828003,112.522308 407.388367,111.849754 417.512695,112.187210 
	C410.547638,110.193039 403.303650,109.294266 397.948334,103.893639 
	C392.799286,98.701042 389.623566,92.298798 386.190765,85.571960 
M425.553711,133.348358 
	C423.306213,133.826065 421.058746,134.303772 418.811249,134.781464 
	C424.727325,136.358856 430.137695,138.390411 435.768341,140.325897 
	C433.815765,131.648666 433.031036,131.086700 425.553711,133.348358 
M217.149673,134.456955 
	C215.912323,134.015884 214.686478,133.538666 213.435654,133.139877 
	C207.483643,131.242279 205.517319,132.797470 205.454803,140.165787 
	C209.470627,137.847946 214.268631,138.376511 217.149673,134.456955 
M302.619324,339.412811 
	C297.343292,337.603058 297.123291,343.160553 294.328186,345.044128 
	C296.748444,344.490479 299.079224,343.765533 301.209229,342.655365 
	C302.191559,342.143372 304.582886,341.974854 302.619324,339.412811 
M344.580505,343.991364 
	C342.720123,341.412964 341.695099,337.010925 336.558777,340.188934 
	C338.604858,343.343323 341.577942,343.428101 344.580505,343.991364 
z"/>
<path fill="white" opacity="1.000000" stroke="none" 
	d="
M290.710022,145.820724 
	C292.300323,144.900620 293.584198,144.172058 294.817413,143.472244 
	C294.763336,141.766220 292.303406,142.047836 292.819214,139.186829 
	C299.867493,135.305679 307.796600,131.761475 316.483002,130.162384 
	C319.221283,129.658295 320.895203,132.247238 322.866821,133.661926 
	C333.734222,141.459473 345.596466,146.720108 358.981232,148.252502 
	C360.273590,148.400452 361.628052,148.907791 362.632782,147.619080 
	C362.985443,145.768524 360.351349,146.414902 360.387146,144.845001 
	C360.651611,144.656754 360.914215,144.307541 361.160187,144.318863 
	C365.637329,144.524933 370.124207,144.647888 374.583710,145.061157 
	C377.329987,145.315659 378.585175,146.390610 378.622253,149.913528 
	C378.661926,153.681381 381.535614,157.056763 381.048370,161.450699 
	C380.077179,170.208450 379.851105,179.050232 379.366608,187.860016 
	C379.085632,192.968597 378.342163,198.010803 380.377991,203.102188 
	C382.098083,207.404037 381.214752,211.973160 379.675415,216.316498 
	C370.234070,242.955734 353.844574,264.121552 330.145050,279.647522 
	C324.579468,283.293579 319.793915,283.981110 313.802582,279.937134 
	C288.078430,262.574158 270.589722,239.358261 261.879791,209.513290 
	C259.057281,199.841812 257.443939,190.095093 257.856476,179.980591 
	C258.189270,171.822250 257.539032,163.723083 256.179565,155.616776 
	C254.750397,147.094925 256.700623,145.180695 265.309601,144.989471 
	C269.830475,144.889053 274.143890,145.410126 278.263184,147.791626 
	C282.524994,150.255524 286.631042,148.532761 290.710022,145.820724 
M306.770050,191.823090 
	C305.584595,191.207581 304.435059,191.484390 303.490845,192.228683 
	C297.858521,196.668564 292.976990,201.874588 288.456970,207.409805 
	C286.713165,209.545303 287.918396,211.510330 289.507996,213.159531 
	C293.197815,216.987793 296.971283,220.735428 300.662628,224.562256 
	C304.553864,228.596237 305.901367,228.707275 310.184753,224.877655 
	C311.850922,223.387970 313.016876,222.039185 315.655457,223.806396 
	C318.105286,225.447174 321.313202,222.924530 320.040131,220.478561 
	C318.274475,217.086166 319.770905,215.329208 321.824951,213.192780 
	C323.375000,211.580536 324.648468,209.521149 322.711121,207.469238 
	C321.081848,205.743607 320.030121,202.923691 316.297058,204.825485 
	C312.813965,206.599915 308.787262,203.366699 310.158691,199.991104 
	C311.777039,196.007828 310.009857,194.149475 306.770050,191.823090 
M324.101715,174.607010 
	C317.787598,180.824341 317.708679,180.881561 322.500671,187.492004 
	C323.794464,189.276779 323.295105,190.444733 322.265106,191.910812 
	C321.369659,193.185379 321.630890,194.445328 322.794708,195.462906 
	C323.707825,196.261307 324.924927,197.031525 325.925903,196.120132 
	C328.902374,193.410004 330.623688,195.546188 332.528168,197.516022 
	C334.418182,199.470856 336.562256,200.615524 339.114685,198.674103 
	C341.147308,197.128036 343.053131,195.539291 341.382721,192.470459 
	C340.444977,190.747604 340.722778,188.850342 342.185547,187.404663 
	C343.772736,185.836090 345.713562,185.413452 347.639191,186.658737 
	C350.761658,188.677979 351.677460,185.683731 353.220978,184.289444 
	C355.088531,182.602402 354.716125,180.603210 353.173706,178.998535 
	C348.683014,174.326706 344.101379,169.740311 339.482391,165.194611 
	C337.269104,163.016418 335.124969,163.372086 333.025238,165.600830 
	C330.289917,168.504242 327.416199,171.277283 324.101715,174.607010 
z"/>
<path fill="white" opacity="1.000000" stroke="none" 
	d="
M112.211266,425.788696 
	C112.202835,432.023163 112.132683,437.851959 112.218872,443.678467 
	C112.300842,449.218903 111.060410,454.966217 115.073746,460.030304 
	C111.347565,462.234772 108.084534,461.268188 105.741608,461.039825 
	C107.453392,441.398590 107.300819,422.439392 105.871239,402.801880 
	C110.538582,400.330261 114.340790,401.440643 116.819504,407.253662 
	C121.322464,417.813904 125.690514,428.431763 130.208679,438.985382 
	C131.097458,441.061432 131.644943,443.419464 134.295975,445.379150 
	C137.436035,438.419678 140.536346,431.702301 143.502625,424.926270 
	C145.971756,419.285950 148.261597,413.567444 150.670731,407.900543 
	C153.400925,401.478424 156.742035,400.285522 162.734787,402.826599 
	C160.581894,422.096802 160.356323,440.973938 162.901260,460.875305 
	C160.315308,462.026978 156.356369,461.610107 152.550949,461.254303 
	C150.481125,461.060791 150.640823,459.153534 151.738220,457.808960 
	C153.711166,455.391541 153.654495,452.591980 153.650208,449.748566 
	C153.637604,441.423157 153.678024,433.097565 153.631332,424.772430 
	C153.619675,422.695923 153.873001,420.510712 152.002441,418.064697 
	C145.625641,432.893280 139.429703,447.301300 133.233765,461.709351 
	C132.631241,461.805420 132.028717,461.901520 131.426193,461.997620 
	C125.603310,448.690948 119.780426,435.384277 113.956078,422.074249 
	C111.944946,422.992950 112.385620,424.301453 112.211266,425.788696 
z"/>
<path fill="white" opacity="1.000000" stroke="none" 
	d="
M313.256592,460.547546 
	C296.851746,465.404297 281.977783,459.406158 275.744324,445.701752 
	C269.269043,431.465790 273.983063,413.993744 286.380890,406.278625 
	C302.031067,396.539551 322.157410,401.351654 329.960480,416.698242 
	C338.728973,433.943573 331.550110,453.175720 313.256592,460.547546 
M285.697449,416.277588 
	C280.973267,423.341736 279.624268,430.971375 282.318542,439.069305 
	C286.549683,451.786407 297.127045,458.616791 308.510834,455.672180 
	C318.447876,453.101746 323.475342,445.876465 325.365173,436.122192 
	C327.306244,426.103455 320.836426,413.605743 311.128693,408.738068 
	C302.334595,404.328552 293.918823,406.672241 285.697449,416.277588 
z"/>
<path fill="white" opacity="1.000000" stroke="none" 
	d="
M360.517517,431.443481 
	C357.407318,426.998016 355.321014,422.247223 350.915863,418.778992 
	C350.630981,432.580566 348.755737,446.278381 351.617737,460.789276 
	C349.244202,462.000244 345.957611,461.792053 343.426453,460.705322 
	C345.434326,441.204834 345.477905,422.402710 343.408051,402.888214 
	C347.146149,400.594910 351.477966,401.347076 354.395813,405.922882 
	C361.919403,417.721405 369.361908,429.571625 376.867218,441.381836 
	C377.817780,442.877625 378.401581,444.705444 381.396118,446.169250 
	C380.841705,431.570038 383.758118,417.537659 379.142548,402.936829 
	C381.834198,400.884766 385.290649,401.930115 389.459747,402.849121 
	C386.302612,407.760101 386.965607,412.611176 386.961609,417.369690 
	C386.951080,429.858002 387.014404,442.346649 386.922668,454.834259 
	C386.905396,457.186218 387.562256,460.201843 384.264252,461.117279 
	C380.924438,462.044312 378.650024,460.575867 376.851562,457.611511 
	C371.581177,448.924622 366.106262,440.361816 360.517517,431.443481 
z"/>
<path fill="white" opacity="1.000000" stroke="none" 
	d="
M400.004333,461.102966 
	C398.855164,460.457703 398.400848,459.581360 398.948822,458.867645 
	C402.190613,454.645782 401.557709,449.735535 401.570221,444.942932 
	C401.595856,435.116486 401.576965,425.289978 401.584076,415.463470 
	C401.587189,411.137909 401.575317,406.821075 397.756989,403.625916 
	C404.224945,400.638702 407.545349,401.369812 410.658539,406.196198 
	C418.242554,417.953583 425.767456,429.749084 433.324188,441.524078 
	C434.295349,443.037415 434.973938,444.812469 436.792816,445.641205 
	C438.984558,438.962128 437.829803,409.222107 435.039764,403.338776 
	C438.404480,401.210022 441.754883,401.639587 445.747467,403.126312 
	C441.778168,409.043579 443.383911,415.440704 443.273529,421.608032 
	C443.073853,432.768097 443.256897,443.934509 443.169739,455.097412 
	C443.151550,457.428741 444.001068,460.426910 440.443573,461.194000 
	C437.297241,461.872406 435.130768,460.642426 433.412720,457.829071 
	C426.381470,446.315094 419.203766,434.890198 412.031006,423.463196 
	C410.824860,421.541626 410.015381,419.247620 406.293671,417.359375 
	C406.883453,432.087036 404.390930,446.023773 408.320068,460.447296 
	C406.274200,462.330109 403.194275,461.011902 400.004333,461.102966 
z"/>
<path fill="white" opacity="1.000000" stroke="none" 
	d="
M489.886200,407.862091 
	C489.750885,409.548706 490.005829,410.980316 488.187775,411.925232 
	C483.309448,404.738556 475.806976,407.895264 469.143768,407.420685 
	C467.383453,407.295288 466.356384,408.537354 466.319214,410.260651 
	C466.222443,414.750336 466.219025,419.242615 466.225800,423.733795 
	C466.229431,426.146088 467.795837,426.851257 469.878174,426.787170 
	C474.878845,426.633270 480.262726,428.208008 484.507324,422.776276 
	C486.787048,427.525055 486.282745,431.406036 484.842285,436.459839 
	C480.279694,430.909943 474.926117,432.408752 469.921143,432.274323 
	C467.458679,432.208191 466.204102,433.496338 466.193146,435.921234 
	C466.168396,441.412903 466.219818,446.904968 466.186737,452.396545 
	C466.170837,455.038025 467.630951,455.856628 469.999176,455.811676 
	C472.328430,455.767426 474.660889,455.758820 476.989258,455.826904 
	C482.411682,455.985474 487.986237,456.542877 489.939331,448.689514 
	C493.275452,452.783905 492.464264,456.458984 491.678558,459.738037 
	C491.001221,462.564636 488.037689,461.145874 486.036804,461.421265 
	C477.227234,462.633789 468.421295,460.995880 459.610413,461.366150 
	C458.155273,461.427277 456.602966,461.510864 456.237122,460.135040 
	C458.228363,441.182526 458.940125,422.298889 455.802826,403.439178 
	C455.773224,402.429016 456.746521,402.125916 457.750488,402.121857 
	C467.235443,402.083527 476.720856,402.045105 486.205566,402.098877 
	C489.831116,402.119415 489.711426,404.941803 489.886200,407.862091 
z"/>
<path fill="white" opacity="1.000000" stroke="none" 
	d="
M84.738358,408.033020 
	C80.531746,406.797760 76.711487,405.725800 72.691216,407.401093 
	C69.047722,408.919373 67.294334,411.704620 66.816696,415.426147 
	C66.380547,418.824371 68.211281,421.116364 70.812737,422.925903 
	C74.980919,425.825226 79.986443,426.821411 84.517723,428.899902 
	C96.834534,434.549561 100.490150,447.477814 91.950104,456.458130 
	C86.273727,462.427185 78.713264,462.873566 71.024490,461.751526 
	C69.226479,461.489136 67.489571,460.806274 65.725456,460.313599 
	C59.302509,458.519989 57.649281,453.718475 61.687302,447.158569 
	C64.850403,455.552673 71.159798,457.297302 78.992867,455.871643 
	C83.813446,454.994324 86.790138,452.199860 87.661232,447.430969 
	C88.542839,442.604431 85.969940,439.372192 81.964539,437.350800 
	C77.216393,434.954498 72.223091,433.047943 67.439377,430.717041 
	C62.311787,428.218567 59.034752,424.260773 58.724888,418.305420 
	C58.220356,408.608887 64.652962,402.024261 75.500282,401.061401 
	C80.268295,400.638123 84.776833,402.018372 89.255989,403.194336 
	C92.493614,404.044342 92.879005,408.558075 90.421227,413.557526 
	C87.322411,413.091248 87.921097,408.879486 84.738358,408.033020 
z"/>
<path fill="white" opacity="1.000000" stroke="none" 
	d="
M529.773193,462.200409 
	C511.262817,462.395721 499.865784,454.580780 496.449463,438.606506 
	C491.957245,417.601501 507.014435,399.694397 530.646545,401.417725 
	C532.621704,401.561737 534.569885,402.168152 536.513977,402.629639 
	C543.464355,404.279663 544.891235,407.633484 541.555237,414.867981 
	C540.995056,414.645233 540.212097,414.584229 539.882019,414.165894 
	C532.020630,404.204559 516.095520,404.943298 508.530884,415.656067 
	C496.901489,432.125153 507.064941,454.577087 527.134521,456.386139 
	C532.268066,456.848907 537.058350,455.316345 540.152527,450.586884 
	C540.780396,449.627136 541.241577,448.479980 542.918091,448.207245 
	C546.174744,450.286438 544.853638,453.653717 544.688049,456.568420 
	C544.535400,459.254456 542.228943,459.863983 540.038635,460.300934 
	C536.776245,460.951843 533.504944,461.558411 529.773193,462.200409 
z"/>
<path fill="white" opacity="1.000000" stroke="none" 
	d="
M224.469086,446.306396 
	C217.896332,432.980652 221.605179,418.378601 229.055969,410.558563 
	C237.347946,401.855652 252.963089,398.720703 264.815918,403.277802 
	C268.597626,404.731812 269.411774,409.533417 266.647705,414.917999 
	C266.093170,414.681885 265.309692,414.601166 264.985992,414.172882 
	C259.367218,406.738800 254.262558,405.101074 245.244064,407.924652 
	C234.778000,411.201355 228.656631,420.394897 229.112747,432.151703 
	C229.541107,443.192780 237.842407,453.538574 248.064362,455.770844 
	C256.442169,457.600403 257.995331,457.020111 267.931519,448.347565 
	C272.106964,452.905792 270.638824,458.864136 265.013611,460.359680 
	C252.282486,463.744385 240.273697,463.361786 229.972748,453.802979 
	C227.755630,451.745544 225.879776,449.432709 224.469086,446.306396 
z"/>
<path fill="white" opacity="1.000000" stroke="none" 
	d="
M550.647705,408.341003 
	C548.523682,409.483276 548.253540,411.994690 545.844177,412.741699 
	C543.757629,410.024109 543.932373,406.704926 544.822693,403.948700 
	C545.776855,400.995117 549.099609,402.098907 551.456299,402.067963 
	C560.282227,401.952209 569.110413,401.967834 577.937500,402.003479 
	C585.622253,402.034515 587.418213,405.216492 583.591431,413.778717 
	C581.369141,408.744171 577.838745,406.765167 572.838867,407.293610 
	C570.129822,407.579987 568.931702,408.570343 568.940063,411.269501 
	C568.983887,425.425964 569.024109,439.582764 568.957520,453.738953 
	C568.946411,456.108215 570.898499,457.543884 571.396118,460.283020 
	C567.169556,462.116730 562.938171,461.254578 558.988586,460.952240 
	C562.674377,444.096436 560.029968,427.527863 560.822754,411.106995 
	C560.939392,408.691223 559.965881,407.284332 557.352966,407.381226 
	C555.206604,407.460876 553.005371,407.059296 550.647705,408.341003 
z"/>
<path fill="white" opacity="1.000000" stroke="none" 
	d="
M176.749969,427.000916 
	C176.752686,422.510773 176.639618,418.515930 176.791321,414.531189 
	C176.939499,410.639587 176.538513,406.942139 173.573166,403.210358 
	C178.554749,401.368927 182.879684,401.657135 187.380325,402.769958 
	C184.093079,413.470428 184.270615,453.279877 187.812103,460.473663 
	C183.278748,462.103394 178.951904,461.441345 174.255371,460.856842 
	C178.743729,449.596893 175.899918,438.428192 176.749969,427.000916 
z"/>
<path fill="white" opacity="1.000000" stroke="none" 
	d="
M117.765663,510.703247 
	C117.714592,509.918365 117.659798,509.432312 117.577713,508.704132 
	C114.938164,510.483978 115.614563,514.458862 112.653893,515.725403 
	C110.088707,514.596741 110.373123,511.696625 108.709740,509.956451 
	C108.534157,510.178741 108.288574,510.362061 108.219666,510.597137 
	C107.680481,512.436768 109.397758,515.903809 106.198738,515.740906 
	C102.964409,515.576233 104.989777,512.271179 104.805367,510.410217 
	C104.512009,507.449921 104.705559,504.442627 104.663734,501.455627 
	C104.644791,500.102295 104.494583,498.656799 106.255020,498.286530 
	C107.828453,497.955597 108.701424,499.056671 109.412483,500.212158 
	C110.864029,502.570892 110.855965,505.653473 113.232491,507.949677 
	C115.184166,506.066040 115.344116,503.472870 116.341637,501.323639 
	C117.149475,499.583099 118.029831,497.851685 120.278282,498.279266 
	C122.559837,498.713165 122.048355,500.737579 122.063904,502.332184 
	C122.093025,505.319305 122.148300,508.310791 122.020363,511.293060 
	C121.942627,513.104980 122.888443,515.952698 119.889626,515.962036 
	C116.262932,515.973389 118.138550,512.832764 117.765663,510.703247 
z"/>
<path fill="white" opacity="1.000000" stroke="none" 
	d="
M420.190399,512.794800 
	C419.476715,511.359344 418.909119,510.236359 418.200500,508.834412 
	C417.004211,510.846283 418.201416,512.459045 417.866058,514.035583 
	C417.641022,515.093445 417.297760,515.995911 416.055084,515.986511 
	C414.832855,515.977234 414.203949,515.136780 414.313568,514.035522 
	C414.759583,509.554108 414.787811,505.080231 414.405945,500.595734 
	C414.312531,499.498291 414.770416,498.612915 415.895294,498.320312 
	C417.291992,497.957001 418.057495,498.862518 418.653992,499.926117 
	C419.934814,502.209900 420.399048,504.946960 422.625427,507.075256 
	C424.914795,505.370209 425.472900,502.681793 426.699799,500.450043 
	C427.467010,499.054504 428.384308,497.783875 430.145416,498.199860 
	C432.309631,498.711029 431.426636,500.484009 431.412292,501.897705 
	C431.375122,505.552765 431.364288,509.208862 431.409851,512.863708 
	C431.428741,514.379944 431.798798,516.098450 429.510040,516.097778 
	C427.433594,516.097229 427.245789,514.650208 427.383057,512.961548 
	C427.499939,511.523468 427.407196,510.068329 426.784241,508.402557 
	C426.151306,510.007538 425.594055,511.647552 424.869812,513.210266 
	C423.323486,516.546814 421.775909,516.321350 420.190399,512.794800 
z"/>
<path fill="white" opacity="1.000000" stroke="none" 
	d="
M296.436249,498.035950 
	C304.288147,498.117493 305.735626,499.813293 303.620697,506.806580 
	C302.497498,510.520508 306.770905,512.111145 306.393402,515.500427 
	C302.865082,517.335510 302.025177,513.691467 299.857483,512.259521 
	C298.357880,513.264404 299.104065,517.051636 295.901428,516.034607 
	C292.963318,515.101501 294.068451,512.492249 294.003906,510.527710 
	C293.900970,507.394226 294.200836,504.249146 294.153748,501.111603 
	C294.130768,499.577667 294.493988,498.532288 296.436249,498.035950 
z"/>
<path fill="white" opacity="1.000000" stroke="none" 
	d="
M162.708466,512.461487 
	C161.057388,514.846252 158.953506,515.725220 156.604187,516.124573 
	C151.251282,517.034607 150.350235,516.161438 150.572159,510.747192 
	C150.694077,507.772827 150.827240,504.754974 150.467407,501.816467 
	C150.056412,498.460297 151.666748,497.799255 154.448196,497.853058 
	C162.389771,498.006561 166.111969,504.231598 162.708466,512.461487 
M154.143723,506.729340 
	C154.369064,508.607971 153.530289,510.710907 155.417419,512.460083 
	C158.550629,512.244141 160.039902,510.503601 160.019028,507.376373 
	C159.997345,504.127747 158.514603,502.218536 155.424225,501.888458 
	C153.930817,503.256805 154.295685,504.655579 154.143723,506.729340 
z"/>
<path fill="white" opacity="1.000000" stroke="none" 
	d="
M236.027252,507.880981 
	C235.853729,510.886902 236.659103,513.655151 234.631592,515.757263 
	C231.766617,515.748535 231.268509,513.447083 230.112091,511.972504 
	C228.888168,510.411743 227.863449,508.694733 226.321579,506.408051 
	C225.269531,509.064789 225.275543,511.204926 225.671326,513.408752 
	C225.898834,514.675537 225.794312,515.905334 224.195633,515.972778 
	C222.530090,516.043030 222.540939,514.715881 222.553070,513.500549 
	C222.594574,509.337830 222.623337,505.174957 222.657074,501.012177 
	C222.666672,499.828217 222.611877,498.566040 224.156189,498.271423 
	C225.524673,498.010315 226.328308,498.924255 226.976685,499.923584 
	C228.595825,502.419128 230.168716,504.944702 232.136154,508.052063 
	C233.346588,505.446716 232.926208,503.341797 232.911148,501.304291 
	C232.902451,500.126709 232.722702,498.684448 234.296722,498.576599 
	C236.299271,498.439362 236.047638,500.125458 236.060181,501.421051 
	C236.079544,503.419250 236.045959,505.417969 236.027252,507.880981 
z"/>
<path fill="white" opacity="1.000000" stroke="none" 
	d="
M286.141846,515.931519 
	C276.185760,516.725098 276.184387,516.725098 276.056946,507.412231 
	C276.031952,505.586029 276.091064,503.755737 275.988617,501.934235 
	C275.855164,499.561523 276.689941,497.847076 279.234741,497.984863 
	C281.962097,498.132568 285.574799,496.460938 287.076660,501.017853 
	C286.165497,501.299042 285.573364,501.637054 284.983215,501.633759 
	C283.436981,501.625000 281.238159,500.455627 280.858521,502.845398 
	C280.489014,505.171600 282.759735,504.460297 284.108154,504.646027 
	C285.273315,504.806458 285.912842,505.521210 285.870789,506.651611 
	C285.826172,507.849945 284.986633,508.390961 283.858795,508.372253 
	C282.051422,508.342285 280.199982,508.515228 280.606567,510.904175 
	C281.073029,513.644836 283.153412,512.647949 284.951141,512.421143 
	C288.640045,511.955780 288.148956,513.644165 286.141846,515.931519 
z"/>
<path fill="white" opacity="1.000000" stroke="none" 
	d="
M472.279053,516.153015 
	C469.436493,515.226379 470.068329,513.206970 470.120026,511.463379 
	C470.208282,508.487946 470.505615,505.514374 470.485077,502.541626 
	C470.471649,500.603943 469.491943,498.099152 472.588928,498.083008 
	C475.419922,498.068207 479.249390,496.255402 480.679962,500.586517 
	C479.183044,503.251282 474.663055,499.093628 474.635468,503.776154 
	C475.613678,505.136871 476.910065,504.262482 477.970245,504.561584 
	C478.876617,504.817291 479.352661,505.437927 479.378387,506.355469 
	C479.402649,507.220062 479.217285,508.121216 478.238831,508.300476 
	C476.421143,508.633545 473.539124,507.999573 474.524841,511.223358 
	C475.466125,514.302002 478.184753,512.143433 480.106171,512.372864 
	C480.262939,512.391602 480.408630,512.503052 480.559479,512.571411 
	C480.917358,516.430054 480.917358,516.430054 472.279053,516.153015 
z"/>
<path fill="white" opacity="1.000000" stroke="none" 
	d="
M407.275787,513.232056 
	C405.947754,517.740173 402.452057,516.458618 399.732605,516.223999 
	C395.838684,515.888000 393.581360,513.142517 392.446564,509.564362 
	C391.247711,505.784271 392.651093,502.629852 395.403900,500.121002 
	C397.741455,497.990601 400.666351,497.249939 403.789856,497.919678 
	C405.975769,498.388367 407.446045,499.485901 406.483063,501.864441 
	C404.939270,502.932220 404.051849,501.711121 402.982544,501.488007 
	C400.605255,500.991882 398.627777,501.726959 397.427887,503.832245 
	C396.201294,505.984406 396.016602,508.239594 397.566040,510.422638 
	C398.976501,512.409912 400.804382,513.168091 403.200867,512.618958 
	C404.571655,512.304810 406.105957,510.142914 407.275787,513.232056 
z"/>
<path fill="white" opacity="1.000000" stroke="none" 
	d="
M181.817276,499.888977 
	C181.505859,502.266235 180.154556,501.784241 178.821152,501.510712 
	C177.502991,501.240326 175.896957,500.962921 175.598755,502.747162 
	C175.274292,504.688629 176.829697,504.773743 178.243088,504.610565 
	C179.595078,504.454498 180.595154,504.864075 180.802505,506.277374 
	C181.024918,507.793365 180.042450,508.373199 178.706009,508.356903 
	C176.931549,508.335297 175.100052,508.346039 175.463318,510.829559 
	C175.869751,513.608154 177.959244,512.816772 179.734344,512.524048 
	C180.363052,512.420349 180.996460,512.345215 181.500259,512.274841 
	C182.627808,513.450623 182.804138,514.810364 181.717056,515.457275 
	C178.999557,517.074463 175.853455,516.597168 173.035172,515.967712 
	C170.173950,515.328735 171.836929,512.663147 171.731308,510.876007 
	C171.594650,508.564026 171.738052,506.237030 171.670547,503.919098 
	C171.492752,497.813202 172.143677,497.216064 178.309097,497.899902 
	C179.652725,498.048950 180.964935,498.179413 181.817276,499.888977 
z"/>
<path fill="white" opacity="1.000000" stroke="none" 
	d="
M214.083801,511.712891 
	C212.964462,516.041626 210.067368,516.686890 206.624313,516.223022 
	C203.261963,515.770020 202.510864,513.244873 202.333725,510.428833 
	C202.135986,507.285065 202.044708,504.134003 201.943054,500.984985 
	C201.895569,499.513580 202.326172,498.247955 204.080231,498.284851 
	C205.828613,498.321655 206.150742,499.626282 206.152710,501.076019 
	C206.156525,503.897583 206.106232,506.721069 206.197342,509.539917 
	C206.249130,511.141449 206.852905,512.577759 208.752502,512.611450 
	C210.655411,512.645142 211.352325,511.155609 211.458496,509.623383 
	C211.641586,506.980713 211.558640,504.318085 211.547394,501.664032 
	C211.541611,500.301422 210.518784,498.242798 212.999481,498.349731 
	C215.140991,498.442047 214.583984,500.376953 214.507797,501.854248 
	C214.345551,505.000854 214.269623,508.151947 214.083801,511.712891 
z"/>
<path fill="white" opacity="1.000000" stroke="none" 
	d="
M440.730072,511.665558 
	C442.519379,512.331482 444.338837,513.825073 445.307556,511.624451 
	C446.227478,509.534607 443.957947,508.983307 442.564117,508.247772 
	C439.324982,506.538422 437.667572,504.054565 439.531311,500.563232 
	C441.232666,497.376007 444.262573,497.326599 447.337738,498.346344 
	C448.547394,498.747498 449.253204,499.630402 448.804016,501.100006 
	C447.433563,502.916504 445.279877,500.219818 443.623535,502.154236 
	C443.105438,504.739136 445.727386,504.797150 447.181213,505.708862 
	C450.373108,507.710388 451.327972,510.403351 449.692444,513.741089 
	C448.460022,516.256165 443.337799,517.328125 440.787231,515.683838 
	C439.113800,514.605042 437.918884,513.206421 440.730072,511.665558 
z"/>
<path fill="white" opacity="1.000000" stroke="none" 
	d="
M322.298340,501.972168 
	C320.431244,501.518921 318.903198,500.551910 317.144470,502.072113 
	C317.221405,504.932770 319.948120,504.812378 321.613708,505.765686 
	C323.914124,507.082245 324.837280,508.954529 324.567688,511.533386 
	C324.337921,513.731262 323.274658,515.373230 321.133606,515.920166 
	C318.711304,516.538940 316.153870,516.860962 314.035828,515.062805 
	C313.066681,514.240051 312.964417,513.046448 314.009064,511.874481 
	C316.054626,511.329193 318.548615,514.746277 320.481171,511.413635 
	C320.167816,509.079224 318.061737,508.953735 316.531891,508.133087 
	C313.743530,506.637268 312.126801,504.489899 313.351318,501.248047 
	C314.673248,497.748383 317.670715,497.433746 320.790863,498.008209 
	C322.975128,498.410370 323.977753,499.709717 322.298340,501.972168 
z"/>
<path fill="white" opacity="1.000000" stroke="none" 
	d="
M260.932495,514.759705 
	C259.009094,510.134369 257.290070,505.806213 255.586227,501.472137 
	C255.064377,500.144714 254.754379,498.776794 256.567627,498.230011 
	C258.118866,497.762238 259.106995,498.576721 259.612122,500.029633 
	C260.361359,502.184570 261.097229,504.344208 261.948364,506.820740 
	C264.371033,504.706726 264.441528,502.081604 265.403809,499.887146 
	C265.914246,498.723114 266.748810,497.881531 268.108276,498.265625 
	C269.324310,498.609192 269.480957,499.709259 269.100861,500.700897 
	C267.315765,505.358154 265.494141,510.002808 263.582397,514.609131 
	C263.124268,515.712952 262.135712,515.877808 260.932495,514.759705 
z"/>
<path fill="white" opacity="1.000000" stroke="none" 
	d="
M510.695740,498.281952 
	C513.718018,497.878113 516.745239,496.908386 517.253784,501.239349 
	C515.384583,502.544739 513.058350,499.993805 511.554840,502.307037 
	C511.773956,505.150421 514.591064,504.943878 516.168579,506.149261 
	C518.839294,508.189941 519.529541,512.201843 517.269287,514.452393 
	C514.696838,517.013916 511.562347,516.956177 508.567291,515.320374 
	C507.242218,514.596680 507.336090,513.113892 508.169098,511.833801 
	C511.730347,512.791382 511.730347,512.791382 514.603394,511.189056 
	C512.256470,507.269287 501.778046,505.762787 510.695740,498.281952 
z"/>
<path fill="white" opacity="1.000000" stroke="none" 
	d="
M500.290588,516.016541 
	C496.987244,516.370605 497.114685,513.994080 496.555054,512.170593 
	C496.211792,511.052185 495.776245,509.831329 494.458649,509.649536 
	C492.791382,509.419434 492.254669,510.815308 491.714935,512.025452 
	C491.311890,512.929138 491.046478,513.894897 490.632263,514.792664 
	C490.153717,515.829834 489.293823,516.313293 488.223816,515.770691 
	C487.369263,515.337280 487.302856,514.485901 487.639008,513.631592 
	C489.606476,508.631317 491.578674,503.632935 494.213837,498.628662 
	C497.350525,504.176086 500.553619,509.447815 500.290588,516.016541 
z"/>
<path fill="white" opacity="1.000000" stroke="none" 
	d="
M133.199249,512.380127 
	C132.451523,514.096069 132.540146,516.673767 130.139526,515.673340 
	C128.136307,514.838623 129.688568,513.116028 130.185333,511.831757 
	C131.897217,507.405914 133.650452,502.996063 135.908157,497.257965 
	C139.958496,503.531433 140.767776,509.592072 143.367538,515.036682 
	C139.636353,517.230957 139.066513,515.000549 138.260803,512.675720 
	C137.127350,509.405121 135.560181,507.547150 133.199249,512.380127 
z"/>
<path fill="white" opacity="1.000000" stroke="none" 
	d="
M361.251221,498.726227 
	C365.217224,496.806915 365.052246,501.785217 367.354767,502.089142 
	C370.021027,501.832062 369.787079,496.190796 372.940857,498.784180 
	C375.284515,500.711395 371.816803,502.735962 370.828400,504.544189 
	C369.202271,507.519104 369.262360,510.541199 369.423889,513.685242 
	C369.489807,514.968506 369.081421,515.989990 367.572876,516.086487 
	C366.264069,516.170166 364.876404,515.594116 365.084259,514.322998 
	C366.030548,508.534821 362.055206,504.143799 361.251221,498.726227 
z"/>
<path fill="white" opacity="1.000000" stroke="none" 
	d="
M533.933960,506.254486 
	C532.845154,508.853241 533.221008,511.208252 533.090454,513.513489 
	C533.019470,514.767151 532.684570,515.864014 531.201111,515.968018 
	C529.451477,516.090576 528.748108,514.937988 528.881165,513.459717 
	C529.258423,509.268402 527.990662,505.658234 525.537964,502.318451 
	C524.729736,501.217957 523.241638,499.730011 525.169617,498.525604 
	C527.034607,497.360504 528.204163,498.763763 529.084717,500.342834 
	C529.475769,501.044037 529.959595,501.693451 530.325928,502.251648 
	C533.454346,502.590729 532.742004,496.881622 536.746643,498.809448 
	C537.443481,501.713043 534.822998,503.478638 533.933960,506.254486 
z"/>
<path fill="white" opacity="1.000000" stroke="none" 
	d="
M350.821228,513.894043 
	C350.640808,516.129028 349.400879,516.370911 347.963989,515.974915 
	C346.808624,515.656494 346.683807,514.608826 346.687805,513.555481 
	C346.701721,509.908356 346.693176,506.261139 346.693176,502.820160 
	C345.836609,500.914642 343.530365,502.683228 342.665924,500.529175 
	C342.735992,500.260223 342.698212,499.340759 343.079163,499.108734 
	C346.611938,496.956879 350.468048,497.466461 354.107971,498.495392 
	C355.687317,498.941864 356.002655,501.683716 354.068817,501.680573 
	C349.068115,501.672424 350.582672,505.056671 350.445801,507.533691 
	C350.336761,509.507874 350.645599,511.505157 350.821228,513.894043 
z"/>
<path fill="white" opacity="1.000000" stroke="none" 
	d="
M334.894958,515.767212 
	C333.372162,516.017212 332.257050,515.636047 332.218506,514.514893 
	C332.052917,509.698395 332.001282,504.874237 332.076843,500.055542 
	C332.097473,498.740906 333.171906,498.035278 334.559479,498.240723 
	C335.728271,498.413727 336.345306,499.227905 336.214264,500.344971 
	C335.619324,505.415710 337.210754,510.615540 334.894958,515.767212 
z"/>
<path fill="white" opacity="1.000000" stroke="none" 
	d="
M248.099304,502.341492 
	C248.102112,506.257690 248.136078,509.720551 248.093185,513.182434 
	C248.076035,514.566895 247.762695,515.925415 245.972763,515.903687 
	C244.196289,515.882141 243.900574,514.515076 243.882263,513.138733 
	C243.831757,509.347107 243.851410,505.554596 243.845566,501.762421 
	C243.843231,500.251923 243.773727,498.486023 245.788116,498.381226 
	C248.196976,498.255951 248.075500,500.214508 248.099304,502.341492 
z"/>
</svg>
